<?xml version="1.0" encoding="utf-8"?>
<!-- Generator: Adobe Illustrator 24.0.1, SVG Export Plug-In . SVG Version: 6.00 Build 0)  -->
<svg version="1.1" id="Capa_1" xmlns="http://www.w3.org/2000/svg" xmlns:xlink="http://www.w3.org/1999/xlink" x="0px" y="0px"
	 viewBox="0 0 70.8 100" style="enable-background:new 0 0 70.8 100;" xml:space="preserve">
<style type="text/css">
	.st0{fill:#455A64;}
	.st1{fill:#FFC107;}
</style>
<path class="st0" d="M35.4,0C20.5,0,8.4,12.1,8.3,27.1v16.7c0,1.2,0.9,2.1,2.1,2.1h8.3c1.2,0,2.1-0.9,2.1-2.1V27.1
	c0-8.1,6.5-14.6,14.6-14.6S50,16.7,50,24.7v4c0,1.2,0.9,2.1,2.1,2.1h8.3c1.2,0,2.1-0.9,2.1-2.1v-4C62.5,9.8,50.4,0,35.4,0z"/>
<path class="st1" d="M10.4,41.7h50c5.8,0,10.4,4.7,10.4,10.4v37.5c0,5.8-4.7,10.4-10.4,10.4h-50C4.7,100,0,95.3,0,89.6V52.1
	C0,46.3,4.7,41.7,10.4,41.7z"/>
<path class="st0" d="M45.8,64.6c0-5.8-4.6-10.4-10.4-10.5c-5.8,0-10.4,4.6-10.5,10.4c0,4,2.2,7.6,5.8,9.4l-1.6,11.3
	c-0.2,1.1,0.6,2.2,1.8,2.4c0.1,0,0.2,0,0.3,0h8.3c1.2,0,2.1-0.9,2.1-2.1c0-0.1,0-0.2,0-0.3l-1.6-11.3C43.6,72.1,45.8,68.5,45.8,64.6
	z"/>
</svg>
