<?xml version="1.0" encoding="utf-8"?>
<!-- Generator: Adobe Illustrator 24.0.1, SVG Export Plug-In . SVG Version: 6.00 Build 0)  -->
<svg version="1.1" id="Layer_1" xmlns="http://www.w3.org/2000/svg" xmlns:xlink="http://www.w3.org/1999/xlink" x="0px" y="0px"
	 viewBox="0 0 186.2 200" style="enable-background:new 0 0 186.2 200;" xml:space="preserve">
<style type="text/css">
	.st0{fill:url(#SVGID_1_);}
	.st1{fill:url(#SVGID_2_);}
	.st2{fill:url(#SVGID_3_);}
	.st3{fill:url(#SVGID_4_);}
	.st4{fill:url(#SVGID_5_);}
	.st5{fill:url(#SVGID_6_);}
	.st6{fill:url(#SVGID_7_);}
	.st7{fill:url(#SVGID_8_);}
</style>
<linearGradient id="SVGID_1_" gradientUnits="userSpaceOnUse" x1="55.8019" y1="137.4924" x2="163.6763" y2="29.618" gradientTransform="matrix(0.998 0 0 -0.998 -8.642560e-03 199.8332)">
	<stop  offset="0" style="stop-color:#FFFCF8"/>
	<stop  offset="0.1875" style="stop-color:#FAF8F6"/>
	<stop  offset="0.4041" style="stop-color:#ECEEF2"/>
	<stop  offset="0.6353" style="stop-color:#D5DCEA"/>
	<stop  offset="0.875" style="stop-color:#B5C4DF"/>
	<stop  offset="1" style="stop-color:#A1B5D8"/>
</linearGradient>
<path class="st0" d="M93.1,50C56.7,50,24.1,66.6,2.6,92.7c-3.5,4.3-3.5,10.4,0,14.7c21.5,26,54,42.7,90.4,42.7s68.9-16.6,90.4-42.7
	c3.5-4.3,3.5-10.4,0-14.7C162,66.6,129.5,50,93.1,50z"/>
<radialGradient id="SVGID_2_" cx="94.9241" cy="55.3377" r="124.0191" gradientTransform="matrix(1.0019 -1.052062e-02 -4.508831e-03 -0.4318 -0.4055 139.1094)" gradientUnits="userSpaceOnUse">
	<stop  offset="0" style="stop-color:#A1B5D8;stop-opacity:0"/>
	<stop  offset="0.4804" style="stop-color:#A0B4D6;stop-opacity:0.4824"/>
	<stop  offset="0.6535" style="stop-color:#9CAFCF;stop-opacity:0.6549"/>
	<stop  offset="0.7768" style="stop-color:#94A6C4;stop-opacity:0.7765"/>
	<stop  offset="0.8765" style="stop-color:#8A9BB3;stop-opacity:0.8784"/>
	<stop  offset="0.961" style="stop-color:#7C8B9D;stop-opacity:0.9608"/>
	<stop  offset="1" style="stop-color:#748290"/>
</radialGradient>
<path class="st1" d="M3.3,108.1C28.6,90,59.6,79.4,93.1,79.4s64.5,10.7,89.8,28.8c0.2-0.3,0.5-0.5,0.7-0.8c3.5-4.3,3.5-10.4,0-14.7
	C162,66.6,129.5,50,93.1,50S24.1,66.6,2.6,92.7c-3.5,4.3-3.5,10.4,0,14.7C2.9,107.6,3.1,107.9,3.3,108.1z"/>
<linearGradient id="SVGID_3_" gradientUnits="userSpaceOnUse" x1="127.6468" y1="62.7867" x2="66.7233" y2="149.8787" gradientTransform="matrix(0.998 0 0 -0.998 -8.642560e-03 199.8332)">
	<stop  offset="0" style="stop-color:#A1B5D8;stop-opacity:0"/>
	<stop  offset="4.210000e-02" style="stop-color:#9DB1D2;stop-opacity:4.313700e-02"/>
	<stop  offset="0.2868" style="stop-color:#8B9CB5;stop-opacity:0.2863"/>
	<stop  offset="0.53" style="stop-color:#7E8EA1;stop-opacity:0.5294"/>
	<stop  offset="0.7693" style="stop-color:#778594;stop-opacity:0.7686"/>
	<stop  offset="1" style="stop-color:#748290"/>
</linearGradient>
<path class="st2" d="M120.4,72.1c-6.9-7.2-16.6-11.6-27.3-11.6c-20.9,0-37.9,17-37.9,37.9c0,10.7,4.5,20.4,11.6,27.3L91.2,150
	c0.6,0,1.3,0,1.9,0c29.3,0,56.1-10.8,76.7-28.6L120.4,72.1z"/>
<radialGradient id="SVGID_4_" cx="80.301" cy="128.5182" r="59.3066" gradientTransform="matrix(0.998 0 0 -0.998 -8.642560e-03 199.8332)" gradientUnits="userSpaceOnUse">
	<stop  offset="0" style="stop-color:#00E7B2"/>
	<stop  offset="0.3524" style="stop-color:#03E6B1"/>
	<stop  offset="0.5753" style="stop-color:#0BE1AF"/>
	<stop  offset="0.7622" style="stop-color:#1ADAAA"/>
	<stop  offset="0.9283" style="stop-color:#2FCFA4"/>
	<stop  offset="1" style="stop-color:#3AC9A0"/>
</radialGradient>
<path class="st3" d="M131,98.3c0,20.9-17,37.9-37.9,37.9s-37.9-17-37.9-37.9s17-37.9,37.9-37.9S131,77.4,131,98.3z"/>
<linearGradient id="SVGID_5_" gradientUnits="userSpaceOnUse" x1="93.2658" y1="119.8682" x2="93.2658" y2="136.6035" gradientTransform="matrix(0.998 0 0 -0.998 -8.642560e-03 199.8332)">
	<stop  offset="0" style="stop-color:#3AC9A0;stop-opacity:0"/>
	<stop  offset="3.510000e-02" style="stop-color:#38C69D;stop-opacity:3.529400e-02"/>
	<stop  offset="0.4167" style="stop-color:#23AA82;stop-opacity:0.4157"/>
	<stop  offset="0.7511" style="stop-color:#169971;stop-opacity:0.7529"/>
	<stop  offset="1" style="stop-color:#11936B"/>
</linearGradient>
<path class="st4" d="M93.1,60.4c-20.9,0-37.9,17-37.9,37.9H131C131,77.4,114,60.4,93.1,60.4z"/>
<radialGradient id="SVGID_6_" cx="96.6079" cy="94.7383" r="39.3284" gradientTransform="matrix(0.998 0 0 -0.998 -8.642560e-03 199.8332)" gradientUnits="userSpaceOnUse">
	<stop  offset="0" style="stop-color:#00E7B2;stop-opacity:0"/>
	<stop  offset="0.3726" style="stop-color:#02E7B3;stop-opacity:0.3725"/>
	<stop  offset="0.5069" style="stop-color:#09E8B5;stop-opacity:0.5059"/>
	<stop  offset="0.6026" style="stop-color:#14E9B8;stop-opacity:0.6039"/>
	<stop  offset="0.68" style="stop-color:#25EBBD;stop-opacity:0.6784"/>
	<stop  offset="0.7463" style="stop-color:#3BEDC4;stop-opacity:0.7451"/>
	<stop  offset="0.805" style="stop-color:#57EFCC;stop-opacity:0.8039"/>
	<stop  offset="0.8581" style="stop-color:#77F2D6;stop-opacity:0.8588"/>
	<stop  offset="0.9069" style="stop-color:#9DF6E1;stop-opacity:0.9059"/>
	<stop  offset="0.9523" style="stop-color:#C8FAEE;stop-opacity:0.9529"/>
	<stop  offset="0.9926" style="stop-color:#F6FEFC;stop-opacity:0.9922"/>
	<stop  offset="1" style="stop-color:#FFFFFF"/>
</radialGradient>
<path class="st5" d="M125.5,100c0,17.9-14.5,32.4-32.4,32.4S60.7,117.9,60.7,100s14.5-32.4,32.4-32.4S125.5,82.1,125.5,100z"/>
<linearGradient id="SVGID_7_" gradientUnits="userSpaceOnUse" x1="79.467" y1="101.7147" x2="107.0645" y2="101.7147" gradientTransform="matrix(0.998 0 0 -0.998 -8.642560e-03 199.8332)">
	<stop  offset="0" style="stop-color:#FF4974"/>
	<stop  offset="0.3262" style="stop-color:#FE4672"/>
	<stop  offset="0.5324" style="stop-color:#FB3E6C"/>
	<stop  offset="0.7054" style="stop-color:#F52F60"/>
	<stop  offset="0.8591" style="stop-color:#EE1A51"/>
	<stop  offset="1" style="stop-color:#E4003D"/>
</linearGradient>
<path class="st6" d="M106.8,98.3c0,7.6-6.2,13.8-13.8,13.8c-7.6,0-13.8-6.2-13.8-13.8c0-7.6,6.2-13.8,13.8-13.8
	C100.7,84.5,106.8,90.7,106.8,98.3z"/>
<linearGradient id="SVGID_8_" gradientUnits="userSpaceOnUse" x1="56.841" y1="139.194" x2="161.7221" y2="34.3129" gradientTransform="matrix(0.998 0 0 -0.998 -8.642560e-03 199.8332)">
	<stop  offset="0" style="stop-color:#3B395F"/>
	<stop  offset="6.330000e-02" style="stop-color:#37355A"/>
	<stop  offset="0.4033" style="stop-color:#232543"/>
	<stop  offset="0.7232" style="stop-color:#171B35"/>
	<stop  offset="1" style="stop-color:#131830"/>
</linearGradient>
<path class="st7" d="M186.1,100c0-1.8-0.9-3.6-2.6-5c-21.5-17.9-54-27.5-90.4-27.5S24.1,77.1,2.6,95C0.9,96.4,0,98.2,0,100
	c0-2.6,0.9-5.2,2.6-7.3c21.5-26,54-42.7,90.4-42.7s68.9,16.6,90.4,42.7C185.3,94.8,186.1,97.4,186.1,100z"/>
</svg>
