<?xml version="1.0" encoding="utf-8"?>
<!-- Generator: Adobe Illustrator 24.0.1, SVG Export Plug-In . SVG Version: 6.00 Build 0)  -->
<svg version="1.1" id="Layer_1" xmlns="http://www.w3.org/2000/svg" xmlns:xlink="http://www.w3.org/1999/xlink" x="0px" y="0px"
	 viewBox="0 0 200 200" style="enable-background:new 0 0 200 200;" xml:space="preserve">
<style type="text/css">
	.st0{fill:#ED1F24;}
</style>
<g>
	<g>
		<path class="st0" d="M100,0C44.8,0,0,44.8,0,100c0,55.2,44.8,100,100,100c55.2,0,100-44.8,100-100C200,44.8,155.2,0,100,0z
			 M100,181.2c-44.9,0-81.2-36.4-81.2-81.2S55.1,18.8,100,18.8s81.2,36.4,81.2,81.2S144.9,181.2,100,181.2z M100,43.9
			c-7.2,0-12.6,3.7-12.6,9.8V109c0,6,5.4,9.8,12.6,9.8c7,0,12.6-3.9,12.6-9.8V53.6C112.6,47.7,107,43.9,100,43.9z M100,131.3
			c-6.9,0-12.5,5.6-12.5,12.5c0,6.9,5.6,12.5,12.5,12.5s12.5-5.6,12.5-12.5C112.5,136.8,106.9,131.3,100,131.3z"/>
	</g>
</g>
</svg>
