<?xml version="1.0" encoding="utf-8"?>
<!-- Generator: Adobe Illustrator 24.0.1, SVG Export Plug-In . SVG Version: 6.00 Build 0)  -->
<svg version="1.1" id="Layer_1" xmlns="http://www.w3.org/2000/svg" xmlns:xlink="http://www.w3.org/1999/xlink" x="0px" y="0px"
	 viewBox="0 0 200 200" style="enable-background:new 0 0 200 200;" xml:space="preserve">
<style type="text/css">
	.st0{fill:url(#SVGID_1_);}
	.st1{fill:url(#SVGID_2_);}
	.st2{fill:url(#SVGID_3_);}
	.st3{fill:url(#SVGID_4_);}
	.st4{fill:url(#SVGID_5_);}
	.st5{fill:url(#SVGID_6_);}
	.st6{fill:url(#SVGID_7_);}
	.st7{fill:url(#SVGID_8_);}
	.st8{fill:url(#SVGID_9_);}
	.st9{fill:url(#SVGID_10_);}
	.st10{fill:url(#SVGID_11_);}
	.st11{fill:url(#SVGID_12_);}
</style>
<linearGradient id="SVGID_1_" gradientUnits="userSpaceOnUse" x1="62.6522" y1="137.3478" x2="223.0184" y2="-23.0185" gradientTransform="matrix(1 0 0 -1 0 200)">
	<stop  offset="0" style="stop-color:#3B395F"/>
	<stop  offset="6.330000e-02" style="stop-color:#37355A"/>
	<stop  offset="0.4033" style="stop-color:#232543"/>
	<stop  offset="0.7232" style="stop-color:#171B35"/>
	<stop  offset="1" style="stop-color:#131830"/>
</linearGradient>
<path class="st0" d="M200,100c0,55.2-44.8,100-100,100S0,155.2,0,100S44.8,0,100,0S200,44.8,200,100z"/>
<linearGradient id="SVGID_2_" gradientUnits="userSpaceOnUse" x1="377.0967" y1="-177.0967" x2="520.0555" y2="-320.0555" gradientTransform="matrix(-1.0039 0 0 1.0039 512 311.2156)">
	<stop  offset="0" style="stop-color:#3B395F"/>
	<stop  offset="6.330000e-02" style="stop-color:#37355A"/>
	<stop  offset="0.4033" style="stop-color:#232543"/>
	<stop  offset="0.7232" style="stop-color:#171B35"/>
	<stop  offset="1" style="stop-color:#131830"/>
</linearGradient>
<path class="st1" d="M189.5,100c0,49.4-40.1,89.5-89.5,89.5S10.5,149.4,10.5,100S50.6,10.5,100,10.5S189.5,50.6,189.5,100z"/>
<radialGradient id="SVGID_3_" cx="85.122" cy="150.8334" r="130.012" gradientTransform="matrix(1 0 0 -1 0 200)" gradientUnits="userSpaceOnUse">
	<stop  offset="0" style="stop-color:#FFFCF8"/>
	<stop  offset="0.2239" style="stop-color:#FBF9F7"/>
	<stop  offset="0.4254" style="stop-color:#F0F1F3"/>
	<stop  offset="0.6183" style="stop-color:#DEE3ED"/>
	<stop  offset="0.8059" style="stop-color:#C4D0E4"/>
	<stop  offset="0.9882" style="stop-color:#A3B7D9"/>
	<stop  offset="1" style="stop-color:#A1B5D8"/>
</radialGradient>
<path class="st2" d="M183.1,100c0,45.9-37.2,83.1-83.1,83.1S16.9,145.9,16.9,100S54.1,16.9,100,16.9S183.1,54.1,183.1,100z"/>
<linearGradient id="SVGID_4_" gradientUnits="userSpaceOnUse" x1="97.1164" y1="165.8386" x2="105.1016" y2="165.8386" gradientTransform="matrix(1 0 0 -1 0 200)">
	<stop  offset="0" style="stop-color:#3B395F"/>
	<stop  offset="6.330000e-02" style="stop-color:#37355A"/>
	<stop  offset="0.4033" style="stop-color:#232543"/>
	<stop  offset="0.7232" style="stop-color:#171B35"/>
	<stop  offset="1" style="stop-color:#131830"/>
</linearGradient>
<path class="st3" d="M100,44c-3,0-5.5-2.4-5.5-5.5v-8.7c0-3,2.4-5.5,5.5-5.5s5.5,2.4,5.5,5.5v8.7C105.5,41.5,103,44,100,44z"/>
<linearGradient id="SVGID_5_" gradientUnits="userSpaceOnUse" x1="97.1164" y1="34.1614" x2="105.1016" y2="34.1614" gradientTransform="matrix(1 0 0 -1 0 200)">
	<stop  offset="0" style="stop-color:#3B395F"/>
	<stop  offset="6.330000e-02" style="stop-color:#37355A"/>
	<stop  offset="0.4033" style="stop-color:#232543"/>
	<stop  offset="0.7232" style="stop-color:#171B35"/>
	<stop  offset="1" style="stop-color:#131830"/>
</linearGradient>
<path class="st4" d="M100,175.6c-3,0-5.5-2.4-5.5-5.5v-8.7c0-3,2.4-5.5,5.5-5.5s5.5,2.4,5.5,5.5v8.7
	C105.5,173.2,103,175.6,100,175.6z"/>
<linearGradient id="SVGID_6_" gradientUnits="userSpaceOnUse" x1="96.737" y1="-144.809" x2="104.691" y2="-144.809" gradientTransform="matrix(0 1.0039 1.0039 0 311.2156 -8.999999e-06)">
	<stop  offset="0" style="stop-color:#3B395F"/>
	<stop  offset="6.330000e-02" style="stop-color:#37355A"/>
	<stop  offset="0.4033" style="stop-color:#232543"/>
	<stop  offset="0.7232" style="stop-color:#171B35"/>
	<stop  offset="1" style="stop-color:#131830"/>
</linearGradient>
<path class="st5" d="M156,100c0-3,2.4-5.5,5.5-5.5h8.7c3,0,5.5,2.4,5.5,5.5s-2.4,5.5-5.5,5.5h-8.7C158.5,105.5,156,103,156,100z"/>
<linearGradient id="SVGID_7_" gradientUnits="userSpaceOnUse" x1="96.737" y1="-275.9719" x2="104.691" y2="-275.9719" gradientTransform="matrix(0 1.0039 1.0039 0 311.2156 -8.999999e-06)">
	<stop  offset="0" style="stop-color:#3B395F"/>
	<stop  offset="6.330000e-02" style="stop-color:#37355A"/>
	<stop  offset="0.4033" style="stop-color:#232543"/>
	<stop  offset="0.7232" style="stop-color:#171B35"/>
	<stop  offset="1" style="stop-color:#131830"/>
</linearGradient>
<path class="st6" d="M24.4,100c0-3,2.4-5.5,5.5-5.5h8.7c3,0,5.5,2.4,5.5,5.5s-2.4,5.5-5.5,5.5h-8.7C26.8,105.5,24.4,103,24.4,100z"
	/>
<linearGradient id="SVGID_8_" gradientUnits="userSpaceOnUse" x1="140.9942" y1="59.0058" x2="97.8643" y2="102.1357" gradientTransform="matrix(1 0 0 -1 0 200)">
	<stop  offset="0" style="stop-color:#A1B5D8;stop-opacity:0"/>
	<stop  offset="3.430000e-02" style="stop-color:#9FB3D5;stop-opacity:3.529400e-02"/>
	<stop  offset="0.4515" style="stop-color:#8898AF;stop-opacity:0.451"/>
	<stop  offset="0.788" style="stop-color:#798898;stop-opacity:0.7882"/>
	<stop  offset="1" style="stop-color:#748290"/>
</linearGradient>
<path class="st7" d="M97.2,80.3c-4.4,0.6-8.3,2.6-11.3,5.6s-5,6.9-5.6,11.3l-22.4,44.9l40.9,40.9c0.4,0,0.8,0,1.2,0
	c45.9,0,83.1-37.2,83.1-83.1c0-0.4,0-0.8,0-1.2l-40.9-40.9L97.2,80.3z"/>
<linearGradient id="SVGID_9_" gradientUnits="userSpaceOnUse" x1="28.8417" y1="-25.3306" x2="41.0899" y2="-25.3306" gradientTransform="matrix(0.7099 0.7099 0.7099 -0.7099 114.0254 35.9359)">
	<stop  offset="0" style="stop-color:#FF4974"/>
	<stop  offset="0.2084" style="stop-color:#FC416E"/>
	<stop  offset="0.5341" style="stop-color:#F42B5D"/>
	<stop  offset="0.9345" style="stop-color:#E60742"/>
	<stop  offset="1" style="stop-color:#E4003D"/>
</linearGradient>
<path class="st8" d="M114.1,114.1L85.9,85.9l56.2-28.1L114.1,114.1z"/>
<linearGradient id="SVGID_10_" gradientUnits="userSpaceOnUse" x1="30.3354" y1="-84.6743" x2="42.5836" y2="-84.6743" gradientTransform="matrix(0.7099 0.7099 0.7099 -0.7099 114.0254 35.9359)">
	<stop  offset="0" style="stop-color:#00E7B2"/>
	<stop  offset="0.4757" style="stop-color:#19DAAA"/>
	<stop  offset="1" style="stop-color:#3AC9A0"/>
</linearGradient>
<path class="st9" d="M114.1,114.1L85.9,85.9l-28.1,56.2L114.1,114.1z"/>
<radialGradient id="SVGID_11_" cx="96.438" cy="112.1701" r="31.1265" gradientTransform="matrix(1 0 0 -1 0 200)" gradientUnits="userSpaceOnUse">
	<stop  offset="0" style="stop-color:#FFC738"/>
	<stop  offset="0.4873" style="stop-color:#FFC636"/>
	<stop  offset="0.6746" style="stop-color:#FFC22F"/>
	<stop  offset="0.8103" style="stop-color:#FFBB23"/>
	<stop  offset="0.9203" style="stop-color:#FFB112"/>
	<stop  offset="1" style="stop-color:#FFA700"/>
</radialGradient>
<path class="st10" d="M119.9,100c0,11-8.9,19.9-19.9,19.9S80.1,111,80.1,100S89,80.1,100,80.1S119.9,89,119.9,100z"/>
<radialGradient id="SVGID_12_" cx="108.0165" cy="87.3118" r="103.902" gradientTransform="matrix(1 0 0 -1 0 200)" gradientUnits="userSpaceOnUse">
	<stop  offset="0" style="stop-color:#FFFFFF;stop-opacity:0"/>
	<stop  offset="0.8587" style="stop-color:#FFFFFF;stop-opacity:0.8588"/>
	<stop  offset="1" style="stop-color:#FFFFFF"/>
</radialGradient>
<path class="st11" d="M177.9,100c0,43-34.9,77.9-77.9,77.9S22.1,143,22.1,100S57,22.1,100,22.1S177.9,57,177.9,100z"/>
</svg>
